<svg width="512" height="512" viewBox="0 0 512 512" fill="none" xmlns="http://www.w3.org/2000/svg">
<rect width="512" height="512" fill="#FFBA01"/>
<path d="M91 468.901V234.755H162.888C234.775 234.755 286.025 282.617 286.025 351.828C286.025 421.039 235.119 468.901 162.888 468.901H91ZM139.154 426.548H160.48C212.418 426.548 236.151 395.558 236.151 351.828C236.151 308.098 212.418 277.108 160.48 277.108H139.154V426.548ZM392.201 472C347.487 472 318.594 450.651 304.492 422.76L343.703 400.034C354.022 416.907 367.436 429.303 391.169 429.303C411.119 429.303 423.846 419.317 423.846 405.544C423.846 389.016 410.775 383.162 388.762 373.521L376.723 368.356C341.983 353.55 318.938 334.956 318.938 295.702C318.938 259.547 346.455 232 389.45 232C420.062 232 442.075 242.674 457.898 270.565L420.406 294.669C412.151 279.862 403.208 274.009 389.45 274.009C375.347 274.009 366.404 282.961 366.404 294.669C366.404 309.131 375.347 314.984 395.985 323.937L408.023 329.102C448.955 346.663 472 364.568 472 404.855C472 448.241 437.948 472 392.201 472Z" fill="black"/>
</svg>
